<svg xmlns="http://www.w3.org/2000/svg" viewBox="0 0 900 1125" width="900" height="1125" role="img">
  <defs>
    <linearGradient id="bg21" x1="0" y1="0" x2="1" y2="1">
      <stop offset="0%" stop-color="#0c0e12"/><stop offset="100%" stop-color="#06070a"/>
    </linearGradient>
    <radialGradient id="glow21" cx="50%" cy="38%" r="52%">
      <stop offset="0%" stop-color="#ff4d2e" stop-opacity="0.55"/>
      <stop offset="100%" stop-color="#ff4d2e" stop-opacity="0"/>
    </radialGradient>
    <linearGradient id="acc21" x1="0" y1="0" x2="1" y2="1">
      <stop offset="0%" stop-color="#ff4d2e"/><stop offset="100%" stop-color="#e8c89a"/>
    </linearGradient>
    <filter id="grain21" x="0" y="0" width="100%" height="100%">
      <feTurbulence type="fractalNoise" baseFrequency="0.85" numOctaves="3" stitchTiles="stitch"/>
      <feColorMatrix type="saturate" values="0"/>
    </filter>
  </defs>
  <rect width="900" height="1125" fill="url(#bg21)"/>
<rect x="120" y="220" width="520" height="330" rx="6" fill="url(#acc21)" opacity="0.1"/>
<rect x="120" y="220" width="520" height="330" rx="6" fill="none" stroke="#f2efe9" stroke-opacity="0.28"/>
<rect x="120" y="220" width="520" height="30" fill="#f2efe9" fill-opacity="0.08"/>
<circle cx="140" cy="235" r="4" fill="#f2efe9" opacity="0.35"/>
<circle cx="156" cy="235" r="4" fill="#f2efe9" opacity="0.35"/>
<circle cx="172" cy="235" r="4" fill="#f2efe9" opacity="0.35"/>
<rect x="180" y="290" width="520" height="330" rx="6" fill="url(#acc21)" opacity="0.16"/>
<rect x="180" y="290" width="520" height="330" rx="6" fill="none" stroke="#f2efe9" stroke-opacity="0.28"/>
<rect x="180" y="290" width="520" height="30" fill="#f2efe9" fill-opacity="0.08"/>
<circle cx="200" cy="305" r="4" fill="#f2efe9" opacity="0.35"/>
<circle cx="216" cy="305" r="4" fill="#f2efe9" opacity="0.35"/>
<circle cx="232" cy="305" r="4" fill="#f2efe9" opacity="0.35"/>
<rect x="240" y="360" width="520" height="330" rx="6" fill="url(#acc21)" opacity="0.26"/>
<rect x="240" y="360" width="520" height="330" rx="6" fill="none" stroke="#f2efe9" stroke-opacity="0.28"/>
<rect x="240" y="360" width="520" height="30" fill="#f2efe9" fill-opacity="0.08"/>
<circle cx="260" cy="375" r="4" fill="#f2efe9" opacity="0.35"/>
<circle cx="276" cy="375" r="4" fill="#f2efe9" opacity="0.35"/>
<circle cx="292" cy="375" r="4" fill="#f2efe9" opacity="0.35"/>
<rect x="268" y="412" width="330" height="6" rx="3" fill="#f2efe9" opacity="0.34"/>
<rect x="268" y="438" width="296" height="6" rx="3" fill="#f2efe9" opacity="0.305"/>
<rect x="268" y="464" width="262" height="6" rx="3" fill="#f2efe9" opacity="0.27"/>
<rect x="268" y="490" width="228" height="6" rx="3" fill="#f2efe9" opacity="0.235"/>
<rect x="268" y="516" width="194" height="6" rx="3" fill="#f2efe9" opacity="0.2"/>
<rect x="268" y="542" width="160" height="6" rx="3" fill="#f2efe9" opacity="0.165"/>
<rect x="268" y="568" width="126" height="6" rx="3" fill="#f2efe9" opacity="0.13"/>
<circle cx="680" cy="690" r="54" fill="none" stroke="url(#acc21)" stroke-width="2"/>
<rect width="900" height="1125" filter="url(#grain21)" opacity="0.055"/>
<text x="60" y="1010" fill="#f2efe9" font-family="Instrument Serif, Georgia, serif" font-size="56" letter-spacing="-1.5">The Studio</text>
<text x="62" y="1054" fill="#8e8d88" font-family="JetBrains Mono, Menlo, monospace" font-size="17" letter-spacing="3">SAN JUAN, PUERTO RICO</text>
</svg>