<svg xmlns="http://www.w3.org/2000/svg" viewBox="0 0 900 1125" width="900" height="1125" role="img">
  <defs>
    <linearGradient id="bg23" x1="0" y1="0" x2="1" y2="1">
      <stop offset="0%" stop-color="#fbf8f2"/><stop offset="100%" stop-color="#efeade"/>
    </linearGradient>
    <radialGradient id="glow23" cx="50%" cy="38%" r="52%">
      <stop offset="0%" stop-color="#0f9e7d" stop-opacity="0.24"/>
      <stop offset="100%" stop-color="#0f9e7d" stop-opacity="0"/>
    </radialGradient>
    <linearGradient id="acc23" x1="0" y1="0" x2="1" y2="1">
      <stop offset="0%" stop-color="#0f9e7d"/><stop offset="100%" stop-color="#6244cc"/>
    </linearGradient>
    <filter id="grain23" x="0" y="0" width="100%" height="100%">
      <feTurbulence type="fractalNoise" baseFrequency="0.85" numOctaves="3" stitchTiles="stitch"/>
      <feColorMatrix type="saturate" values="0"/>
    </filter>
  </defs>
  <rect width="900" height="1125" fill="url(#bg23)"/>
<rect x="90" y="240" width="438" height="128" rx="5" fill="url(#acc23)" opacity="0.32" stroke="#14120e" stroke-opacity="0.121"/>
<rect x="550" y="240" width="208" height="128" rx="5" fill="url(#acc23)" opacity="0.395" stroke="#14120e" stroke-opacity="0.121"/>
<rect x="90" y="390" width="208" height="278" rx="5" fill="url(#acc23)" opacity="0.47" stroke="#14120e" stroke-opacity="0.121"/>
<rect x="320" y="390" width="438" height="128" rx="5" fill="url(#acc23)" opacity="0.545" stroke="#14120e" stroke-opacity="0.121"/>
<rect x="320" y="540" width="208" height="128" rx="5" fill="url(#acc23)" opacity="0.62" stroke="#14120e" stroke-opacity="0.121"/>
<rect x="550" y="540" width="208" height="128" rx="5" fill="url(#acc23)" opacity="0.695" stroke="#14120e" stroke-opacity="0.121"/>
<rect x="90" y="690" width="668" height="128" rx="5" fill="url(#acc23)" opacity="0.77" stroke="#14120e" stroke-opacity="0.121"/>
<circle cx="760" cy="300" r="46" fill="url(#acc23)" opacity=".8"/>
<rect width="900" height="1125" filter="url(#grain23)" opacity="0.045"/>
<text x="60" y="1010" fill="#14120e" font-family="Instrument Serif, Georgia, serif" font-size="56" letter-spacing="-1.5">Design Systems</text>
<text x="62" y="1054" fill="#5f5b53" font-family="JetBrains Mono, Menlo, monospace" font-size="17" letter-spacing="3">MODULAR THINKING</text>
</svg>