<svg xmlns="http://www.w3.org/2000/svg" viewBox="0 0 720 720" width="720" height="720" aria-hidden="true">
<defs><linearGradient id="og" x1="0" y1="0" x2="1" y2="1">
<stop offset="0%" stop-color="#e03c1c"/><stop offset="55%" stop-color="#b0812f"/><stop offset="100%" stop-color="#0c8f72"/>
</linearGradient></defs>
<ellipse cx="360" cy="360" rx="80" ry="27" fill="none" stroke="url(#og)" stroke-width="1.2" opacity="0.62" transform="rotate(0 360 360)"/>
<ellipse cx="360" cy="360" rx="126" ry="54" fill="none" stroke="url(#og)" stroke-width="1.2" opacity="0.55" transform="rotate(26 360 360)"/>
<ellipse cx="360" cy="360" rx="172" ry="89" fill="none" stroke="url(#og)" stroke-width="1.2" opacity="0.48" transform="rotate(52 360 360)"/>
<ellipse cx="360" cy="360" rx="218" ry="133" fill="none" stroke="url(#og)" stroke-width="1.2" opacity="0.41" transform="rotate(78 360 360)"/>
<ellipse cx="360" cy="360" rx="264" ry="185" fill="none" stroke="url(#og)" stroke-width="1.2" opacity="0.34" transform="rotate(104 360 360)"/>
<ellipse cx="360" cy="360" rx="310" ry="245" fill="none" stroke="url(#og)" stroke-width="1.2" opacity="0.27" transform="rotate(130 360 360)"/>
<ellipse cx="360" cy="360" rx="356" ry="313" fill="none" stroke="url(#og)" stroke-width="1.2" opacity="0.2" transform="rotate(156 360 360)"/>
<circle cx="360" cy="360" r="46" fill="none" stroke="#e03c1c" stroke-width="1.6" opacity=".8"/>
<circle cx="360" cy="360" r="5" fill="#e03c1c"/>
</svg>