<svg xmlns="http://www.w3.org/2000/svg" viewBox="0 0 1200 900" width="1200" height="900" role="img">
  <defs>
    <linearGradient id="bg8" x1="0" y1="0" x2="1" y2="1">
      <stop offset="0%" stop-color="#fbf8f2"/><stop offset="100%" stop-color="#efeade"/>
    </linearGradient>
    <radialGradient id="glow8" cx="50%" cy="50%" r="50%">
      <stop offset="0%" stop-color="#6244cc" stop-opacity="0.24"/>
      <stop offset="100%" stop-color="#6244cc" stop-opacity="0"/>
    </radialGradient>
    <linearGradient id="acc8" x1="0" y1="0" x2="1" y2="1">
      <stop offset="0%" stop-color="#6244cc"/><stop offset="100%" stop-color="#0e9e7c"/>
    </linearGradient>
    <filter id="grain8" x="0" y="0" width="100%" height="100%">
      <feTurbulence type="fractalNoise" baseFrequency="0.85" numOctaves="3" stitchTiles="stitch"/>
      <feColorMatrix type="saturate" values="0"/>
    </filter>
  </defs>
  <rect width="1200" height="900" fill="url(#bg8)"/>
  <circle cx="600" cy="380" r="430" fill="url(#glow8)"/>
  <rect x="82" y="314" width="6" height="132" rx="3" fill="url(#acc8)" opacity="0.59"/>
  <rect x="99" y="288" width="6" height="184" rx="3" fill="url(#acc8)" opacity="0.74"/>
  <rect x="115" y="236" width="6" height="288" rx="3" fill="url(#acc8)" opacity="0.89"/>
  <rect x="132" y="267" width="6" height="227" rx="3" fill="url(#acc8)" opacity="1.0"/>
  <rect x="148" y="253" width="6" height="253" rx="3" fill="url(#acc8)" opacity="1.0"/>
  <rect x="165" y="241" width="6" height="279" rx="3" fill="url(#acc8)" opacity="1.0"/>
  <rect x="182" y="291" width="6" height="179" rx="3" fill="url(#acc8)" opacity="1.0"/>
  <rect x="198" y="260" width="6" height="240" rx="3" fill="url(#acc8)" opacity="0.59"/>
  <rect x="215" y="262" width="6" height="237" rx="3" fill="url(#acc8)" opacity="0.74"/>
  <rect x="231" y="267" width="6" height="227" rx="3" fill="url(#acc8)" opacity="0.89"/>
  <rect x="248" y="334" width="6" height="92" rx="3" fill="url(#acc8)" opacity="1.0"/>
  <rect x="265" y="336" width="6" height="89" rx="3" fill="url(#acc8)" opacity="1.0"/>
  <rect x="281" y="355" width="6" height="50" rx="3" fill="url(#acc8)" opacity="1.0"/>
  <rect x="298" y="353" width="6" height="53" rx="3" fill="url(#acc8)" opacity="1.0"/>
  <rect x="314" y="366" width="6" height="28" rx="3" fill="url(#acc8)" opacity="0.59"/>
  <rect x="331" y="371" width="6" height="18" rx="3" fill="url(#acc8)" opacity="0.74"/>
  <rect x="348" y="368" width="6" height="23" rx="3" fill="url(#acc8)" opacity="0.89"/>
  <rect x="364" y="358" width="6" height="45" rx="3" fill="url(#acc8)" opacity="1.0"/>
  <rect x="381" y="347" width="6" height="67" rx="3" fill="url(#acc8)" opacity="1.0"/>
  <rect x="397" y="330" width="6" height="101" rx="3" fill="url(#acc8)" opacity="1.0"/>
  <rect x="414" y="335" width="6" height="90" rx="3" fill="url(#acc8)" opacity="1.0"/>
  <rect x="431" y="333" width="6" height="94" rx="3" fill="url(#acc8)" opacity="0.59"/>
  <rect x="447" y="278" width="6" height="205" rx="3" fill="url(#acc8)" opacity="0.74"/>
  <rect x="464" y="312" width="6" height="135" rx="3" fill="url(#acc8)" opacity="0.89"/>
  <rect x="480" y="292" width="6" height="177" rx="3" fill="url(#acc8)" opacity="1.0"/>
  <rect x="497" y="282" width="6" height="196" rx="3" fill="url(#acc8)" opacity="1.0"/>
  <rect x="514" y="308" width="6" height="144" rx="3" fill="url(#acc8)" opacity="1.0"/>
  <rect x="530" y="263" width="6" height="234" rx="3" fill="url(#acc8)" opacity="1.0"/>
  <rect x="547" y="276" width="6" height="207" rx="3" fill="url(#acc8)" opacity="0.59"/>
  <rect x="563" y="257" width="6" height="247" rx="3" fill="url(#acc8)" opacity="0.74"/>
  <rect x="580" y="302" width="6" height="156" rx="3" fill="url(#acc8)" opacity="0.89"/>
  <rect x="597" y="315" width="6" height="130" rx="3" fill="url(#acc8)" opacity="1.0"/>
  <rect x="613" y="340" width="6" height="81" rx="3" fill="url(#acc8)" opacity="1.0"/>
  <rect x="630" y="352" width="6" height="57" rx="3" fill="url(#acc8)" opacity="1.0"/>
  <rect x="646" y="365" width="6" height="30" rx="3" fill="url(#acc8)" opacity="1.0"/>
  <rect x="663" y="371" width="6" height="19" rx="3" fill="url(#acc8)" opacity="0.59"/>
  <rect x="680" y="370" width="6" height="20" rx="3" fill="url(#acc8)" opacity="0.74"/>
  <rect x="696" y="361" width="6" height="38" rx="3" fill="url(#acc8)" opacity="0.89"/>
  <rect x="713" y="348" width="6" height="65" rx="3" fill="url(#acc8)" opacity="1.0"/>
  <rect x="729" y="332" width="6" height="96" rx="3" fill="url(#acc8)" opacity="1.0"/>
  <rect x="746" y="330" width="6" height="100" rx="3" fill="url(#acc8)" opacity="1.0"/>
  <rect x="763" y="321" width="6" height="118" rx="3" fill="url(#acc8)" opacity="1.0"/>
  <rect x="779" y="303" width="6" height="154" rx="3" fill="url(#acc8)" opacity="0.59"/>
  <rect x="796" y="313" width="6" height="134" rx="3" fill="url(#acc8)" opacity="0.74"/>
  <rect x="812" y="228" width="6" height="304" rx="3" fill="url(#acc8)" opacity="0.89"/>
  <rect x="829" y="264" width="6" height="232" rx="3" fill="url(#acc8)" opacity="1.0"/>
  <rect x="846" y="210" width="6" height="340" rx="3" fill="url(#acc8)" opacity="1.0"/>
  <rect x="862" y="270" width="6" height="221" rx="3" fill="url(#acc8)" opacity="1.0"/>
  <rect x="879" y="219" width="6" height="322" rx="3" fill="url(#acc8)" opacity="1.0"/>
  <rect x="895" y="250" width="6" height="260" rx="3" fill="url(#acc8)" opacity="0.59"/>
  <rect x="912" y="335" width="6" height="90" rx="3" fill="url(#acc8)" opacity="0.74"/>
  <rect x="929" y="333" width="6" height="94" rx="3" fill="url(#acc8)" opacity="0.89"/>
  <rect x="945" y="320" width="6" height="119" rx="3" fill="url(#acc8)" opacity="1.0"/>
  <rect x="962" y="351" width="6" height="57" rx="3" fill="url(#acc8)" opacity="1.0"/>
  <rect x="978" y="358" width="6" height="43" rx="3" fill="url(#acc8)" opacity="1.0"/>
  <rect x="995" y="370" width="6" height="21" rx="3" fill="url(#acc8)" opacity="1.0"/>
  <rect x="1012" y="371" width="6" height="18" rx="3" fill="url(#acc8)" opacity="0.59"/>
  <rect x="1028" y="366" width="6" height="28" rx="3" fill="url(#acc8)" opacity="0.74"/>
  <rect x="1045" y="353" width="6" height="54" rx="3" fill="url(#acc8)" opacity="0.89"/>
  <rect x="1061" y="349" width="6" height="61" rx="3" fill="url(#acc8)" opacity="1.0"/>
  <rect x="1078" y="344" width="6" height="71" rx="3" fill="url(#acc8)" opacity="1.0"/>
  <rect x="1095" y="318" width="6" height="124" rx="3" fill="url(#acc8)" opacity="1.0"/>
  <rect x="1111" y="251" width="6" height="257" rx="3" fill="url(#acc8)" opacity="1.0"/>
  <rect x="1128" y="248" width="6" height="264" rx="3" fill="url(#acc8)" opacity="0.59"/>
  <line x1="72" y1="380" x2="1128" y2="380" stroke="#14120e" stroke-width="1" opacity="0.121"/>
  <rect width="1200" height="900" filter="url(#grain8)" opacity="0.045"/>
  <text x="72" y="804" fill="#14120e" font-family="Instrument Serif, Iowan Old Style, Georgia, serif" font-size="70" letter-spacing="-2">Nocturn</text>
  <text x="74" y="844" fill="#5f5b53" font-family="JetBrains Mono, ui-monospace, Menlo, monospace" font-size="19" letter-spacing="3.4">MEDIA &#183; STREAMING</text>
  <text x="1128" y="108" fill="#837e74" text-anchor="end" font-family="JetBrains Mono, ui-monospace, Menlo, monospace" font-size="18" letter-spacing="3.4">CONCEPT</text>
</svg>
